<svg xmlns="http://www.w3.org/2000/svg" width="232.455" height="316.744" viewBox="0 0 232.45467 316.74399"><defs><clipPath id="a"><path d="M0 300h500V0H0z"/></clipPath></defs><g clip-path="url(#a)" transform="matrix(1.33333 0 0 -1.33333 -227.02 351.955)"><path d="M257.799 259.999v.217c22.914-.048 42.46-8.162 58.64-24.342 10.077-10.077 17.028-21.413 20.856-34.007a82.558 82.558 0 0 0 2.324-9.81 87.07 87.07 0 0 0 1.237-13.88v-4.432a.652.652 0 0 1 0-.436.652.652 0 0 1 0-.436 1.336 1.336 0 0 1-.074-.436c-.581-11.676-3.318-22.478-8.211-32.41a75.304 75.304 0 0 0-3.705-6.684c-.776-1.162-1.551-2.325-2.326-3.489l-59.803-92.211a4.774 4.774 0 0 0-.291-.509 28.617 28.617 0 0 0-1.09-1.453 2.315 2.315 0 0 1-.363-.291l.073-.074-3.343-5.158v126.438c.049 3.101 1.162 5.765 3.343 7.993 2.276 2.228 4.99 3.342 8.137 3.342 3.198 0 5.91-1.114 8.14-3.342 2.276-2.277 3.414-5.014 3.414-8.212v-.727c0-1.162.412-2.155 1.236-2.979.824-.822 1.84-1.235 3.052-1.235 1.162 0 2.155.413 2.979 1.235.823.824 1.236 1.817 1.236 2.979 0 .388-.05.751-.147 1.091-.095 1.017-.144 1.792-.144 2.325v.581c.29 1.939 1.018 3.489 2.18 4.651 1.405 1.453 3.148 2.18 5.23 2.18 2.085 0 3.829-.727 5.234-2.18 1.066-1.066 1.767-2.3 2.106-3.706.05-.144.074-.315.074-.508 0-1.164.436-2.156 1.308-2.98.774-.872 1.767-1.307 2.978-1.307 1.164 0 2.157.435 2.98 1.307.824.824 1.235 1.816 1.235 2.98 0 .388-.048.775-.144 1.163v.072c-.05.145-.098.291-.147.436l-.144.291c-3.49 8.477-8.212 15.695-14.17 21.655-11.046 10.996-24.2 16.978-39.458 17.947v11.918l-.29 1.453a3.888 3.888 0 0 1-.872 1.307 9.855 9.855 0 0 1-.872.654l-1.164.291h-1.597l-1.09-.291a6.318 6.318 0 0 1-.945-.654 3.89 3.89 0 0 1-.873-1.307l-.363-1.381v-11.99c-15.502-.823-28.847-6.806-40.038-17.947-5.861-5.911-10.32-12.403-13.37-19.475-.05-.049-.121-.219-.22-.508a19.35 19.35 0 0 1-.798-2.326c-.241-.679-.363-1.115-.363-1.308 0-1.164.41-2.156 1.235-2.98.824-.872 1.817-1.307 2.98-1.307 1.21 0 2.204.435 2.979 1.307.678.63 1.09 1.356 1.234 2.18.05.194.074.363.074.509v.291c.29 1.454.992 2.736 2.107 3.851 1.404 1.453 3.149 2.18 5.232 2.18s3.827-.727 5.23-2.18c1.455-1.454 2.182-3.222 2.182-5.304v-.582a8.713 8.713 0 0 0-.364-1.961c-.048-.098-.072-.243-.072-.438 0-1.162.41-2.155 1.234-2.979.825-.822 1.817-1.235 2.98-1.235 1.21 0 2.229.413 3.052 1.235.775.775 1.187 1.672 1.235 2.69a5.785 5.785 0 0 0-.072.944v.072c0 3.198 1.114 5.935 3.342 8.212 2.278 2.228 5.014 3.342 8.212 3.342 3.197 0 5.91-1.114 8.138-3.342 2.229-2.228 3.368-4.918 3.416-8.066v-.146c0-.339-.025-.677-.073-1.016V30.412l-4.433 6.794v.073l-60.602 92.212a82.86 82.86 0 0 0-2.471 3.779c-8.09 12.886-12.136 27.443-12.136 43.672v1.235a87.07 87.07 0 0 0 1.236 13.88h.363a82.756 82.756 0 0 0 2.325 9.81c3.828 12.594 10.756 23.93 20.782 34.007 16.278 16.229 35.897 24.342 58.859 24.342v-.363z" fill="#3894d2" fill-rule="evenodd"/></g></svg>